<svg aria-roledescription="flowchart-v2" role="graphics-document document" viewBox="-8 -8 872.359375 668" style="max-width: 872.359px; background-color: white;" xmlns:xlink="http://www.w3.org/1999/xlink" xmlns="http://www.w3.org/2000/svg" width="100%" id="my-svg"><style>#my-svg{font-family:"trebuchet ms",verdana,arial,sans-serif;font-size:16px;fill:#333;}#my-svg .error-icon{fill:#552222;}#my-svg .error-text{fill:#552222;stroke:#552222;}#my-svg .edge-thickness-normal{stroke-width:2px;}#my-svg .edge-thickness-thick{stroke-width:3.5px;}#my-svg .edge-pattern-solid{stroke-dasharray:0;}#my-svg .edge-pattern-dashed{stroke-dasharray:3;}#my-svg .edge-pattern-dotted{stroke-dasharray:2;}#my-svg .marker{fill:#333333;stroke:#333333;}#my-svg .marker.cross{stroke:#333333;}#my-svg svg{font-family:"trebuchet ms",verdana,arial,sans-serif;font-size:16px;}#my-svg .label{font-family:"trebuchet ms",verdana,arial,sans-serif;color:#333;}#my-svg .cluster-label text{fill:#333;}#my-svg .cluster-label span,#my-svg p{color:#333;}#my-svg .label text,#my-svg span,#my-svg p{fill:#333;color:#333;}#my-svg .node rect,#my-svg .node circle,#my-svg .node ellipse,#my-svg .node polygon,#my-svg .node path{fill:#ECECFF;stroke:#9370DB;stroke-width:1px;}#my-svg .flowchart-label text{text-anchor:middle;}#my-svg .node .katex path{fill:#000;stroke:#000;stroke-width:1px;}#my-svg .node .label{text-align:center;}#my-svg .node.clickable{cursor:pointer;}#my-svg .arrowheadPath{fill:#333333;}#my-svg .edgePath .path{stroke:#333333;stroke-width:2.0px;}#my-svg .flowchart-link{stroke:#333333;fill:none;}#my-svg .edgeLabel{background-color:#e8e8e8;text-align:center;}#my-svg .edgeLabel rect{opacity:0.5;background-color:#e8e8e8;fill:#e8e8e8;}#my-svg .labelBkg{background-color:rgba(232, 232, 232, 0.5);}#my-svg .cluster rect{fill:#ffffde;stroke:#aaaa33;stroke-width:1px;}#my-svg .cluster text{fill:#333;}#my-svg .cluster span,#my-svg p{color:#333;}#my-svg div.mermaidTooltip{position:absolute;text-align:center;max-width:200px;padding:2px;font-family:"trebuchet ms",verdana,arial,sans-serif;font-size:12px;background:hsl(80, 100%, 96.2745098039%);border:1px solid #aaaa33;border-radius:2px;pointer-events:none;z-index:100;}#my-svg .flowchartTitleText{text-anchor:middle;font-size:18px;fill:#333;}#my-svg :root{--mermaid-font-family:"trebuchet ms",verdana,arial,sans-serif;}#my-svg .user&gt;*{fill:#dde7c7!important;stroke:#6b8e23!important;color:#000!important;}#my-svg .user span{fill:#dde7c7!important;stroke:#6b8e23!important;color:#000!important;}#my-svg .user tspan{fill:#000!important;}</style><g><marker orient="auto" markerHeight="12" markerWidth="12" markerUnits="userSpaceOnUse" refY="5" refX="6" viewBox="0 0 10 10" class="marker flowchart" id="my-svg_flowchart-pointEnd"><path style="stroke-width: 1; stroke-dasharray: 1, 0;" class="arrowMarkerPath" d="M 0 0 L 10 5 L 0 10 z"/></marker><marker orient="auto" markerHeight="12" markerWidth="12" markerUnits="userSpaceOnUse" refY="5" refX="4.5" viewBox="0 0 10 10" class="marker flowchart" id="my-svg_flowchart-pointStart"><path style="stroke-width: 1; stroke-dasharray: 1, 0;" class="arrowMarkerPath" d="M 0 5 L 10 10 L 10 0 z"/></marker><marker orient="auto" markerHeight="11" markerWidth="11" markerUnits="userSpaceOnUse" refY="5" refX="11" viewBox="0 0 10 10" class="marker flowchart" id="my-svg_flowchart-circleEnd"><circle style="stroke-width: 1; stroke-dasharray: 1, 0;" class="arrowMarkerPath" r="5" cy="5" cx="5"/></marker><marker orient="auto" markerHeight="11" markerWidth="11" markerUnits="userSpaceOnUse" refY="5" refX="-1" viewBox="0 0 10 10" class="marker flowchart" id="my-svg_flowchart-circleStart"><circle style="stroke-width: 1; stroke-dasharray: 1, 0;" class="arrowMarkerPath" r="5" cy="5" cx="5"/></marker><marker orient="auto" markerHeight="11" markerWidth="11" markerUnits="userSpaceOnUse" refY="5.2" refX="12" viewBox="0 0 11 11" class="marker cross flowchart" id="my-svg_flowchart-crossEnd"><path style="stroke-width: 2; stroke-dasharray: 1, 0;" class="arrowMarkerPath" d="M 1,1 l 9,9 M 10,1 l -9,9"/></marker><marker orient="auto" markerHeight="11" markerWidth="11" markerUnits="userSpaceOnUse" refY="5.2" refX="-1" viewBox="0 0 11 11" class="marker cross flowchart" id="my-svg_flowchart-crossStart"><path style="stroke-width: 2; stroke-dasharray: 1, 0;" class="arrowMarkerPath" d="M 1,1 l 9,9 M 10,1 l -9,9"/></marker><g class="root"><g class="clusters"><g id="saved" class="cluster default flowchart-label"><rect height="188" width="248.0625" y="412" x="608.296875" ry="0" rx="0" style=""/><g transform="translate(685.2734375, 412)" class="cluster-label"><foreignObject height="19" width="94.109375"><div style="display: inline-block; white-space: nowrap;" xmlns="http://www.w3.org/1999/xhtml"><span class="nodeLabel">Saved results</span></div></foreignObject></g></g><g id="cache" class="cluster default flowchart-label"><rect height="272" width="199.328125" y="0" x="358.96875" ry="0" rx="0" style=""/><g transform="translate(404.7265625, 0)" class="cluster-label"><foreignObject height="19" width="107.8125"><div style="display: inline-block; white-space: nowrap;" xmlns="http://www.w3.org/1999/xhtml"><span class="nodeLabel">Cached models</span></div></foreignObject></g></g><g id="uiApp" class="cluster default flowchart-label"><rect height="360" width="391.125" y="292" x="167.171875" ry="0" rx="0" style=""/><g transform="translate(314.0546875, 292)" class="cluster-label"><foreignObject height="19" width="97.359375"><div style="display: inline-block; white-space: nowrap;" xmlns="http://www.w3.org/1999/xhtml"><span class="nodeLabel">Streamlit app</span></div></foreignObject></g></g></g><g class="edgePaths"><path marker-end="url(#my-svg_flowchart-pointEnd)" style="fill:none;" class="edge-thickness-normal edge-pattern-solid flowchart-link LS-user LE-problem" id="L-user-problem-0" d="M117.172,432L121.339,432C125.505,432,133.839,432,142.172,432C150.505,432,158.839,432,168.786,432C178.733,432,190.295,432,196.076,432L201.856,432"/><path marker-end="url(#my-svg_flowchart-pointEnd)" style="fill:none;" class="edge-thickness-normal edge-pattern-solid flowchart-link LS-problem LE-loaders" id="L-problem-loaders-0" d="M293.984,432L300.648,432C307.313,432,320.641,432,331.471,432C342.302,432,350.635,432,367.376,442.597C384.116,453.195,409.263,474.39,421.837,484.987L434.41,495.584"/><path marker-end="url(#my-svg_flowchart-pointEnd)" style="fill:none;" class="edge-thickness-normal edge-pattern-solid flowchart-link LS-solution LE-loaders" id="L-solution-loaders-0" d="M293.664,516L300.382,516C307.099,516,320.534,516,331.418,516C342.302,516,350.635,516,360.031,516C369.426,516,379.883,516,385.112,516L390.341,516"/><path marker-end="url(#my-svg_flowchart-pointEnd)" style="fill:none;" class="edge-thickness-normal edge-pattern-solid flowchart-link LS-experiments LE-loaders" id="L-experiments-loaders-0" d="M308.969,600L313.135,600C317.302,600,325.635,600,333.969,600C342.302,600,350.635,600,367.376,589.403C384.116,578.805,409.263,557.61,421.837,547.013L434.41,536.416"/><path marker-end="url(#my-svg_flowchart-pointEnd)" style="fill:none;" class="edge-thickness-normal edge-pattern-solid flowchart-link LS-demo LE-ldaModel" id="L-demo-ldaModel-0" d="M297.829,331L303.853,328.833C309.876,326.667,321.922,322.333,332.112,320.167C342.302,318,350.635,318,370.041,277.327C389.447,236.654,419.925,155.309,435.165,114.636L450.404,73.963"/><path marker-end="url(#my-svg_flowchart-pointEnd)" style="fill:none;" class="edge-thickness-normal edge-pattern-solid flowchart-link LS-demo LE-bertModel" id="L-demo-bertModel-0" d="M301.453,341.899L306.872,341.249C312.292,340.599,323.13,339.3,332.716,338.65C342.302,338,350.635,338,369.624,307.959C388.613,277.918,418.256,217.835,433.078,187.794L447.9,157.753"/><path marker-end="url(#my-svg_flowchart-pointEnd)" style="fill:none;" class="edge-thickness-normal edge-pattern-solid flowchart-link LS-demo LE-robert" id="L-demo-robert-0" d="M294.876,365L301.391,367.5C307.907,370,320.938,375,331.62,377.5C342.302,380,350.635,380,369.181,356.916C387.726,333.833,416.484,287.666,430.863,264.582L445.241,241.499"/><path marker-end="url(#my-svg_flowchart-pointEnd)" style="fill:none;" class="edge-thickness-normal edge-pattern-solid flowchart-link LS-loaders LE-csv" id="L-loaders-csv-0" d="M491.215,499L502.396,493.167C513.576,487.333,535.936,475.667,551.283,469.833C566.63,464,574.964,464,583.297,464C591.63,464,599.964,464,608.171,464C616.379,464,624.461,464,628.503,464L632.544,464"/><path marker-end="url(#my-svg_flowchart-pointEnd)" style="fill:none;" class="edge-thickness-normal edge-pattern-solid flowchart-link LS-loaders LE-htmlviz" id="L-loaders-htmlviz-0" d="M511.579,533L519.366,535.5C527.152,538,542.724,543,554.677,545.5C566.63,548,574.964,548,583.297,548C591.63,548,599.964,548,607.414,548C614.864,548,621.43,548,624.714,548L627.997,548"/></g><g class="edgeLabels"><g class="edgeLabel"><g transform="translate(0, 0)" class="label"><foreignObject height="0" width="0"><div style="display: inline-block; white-space: nowrap;" xmlns="http://www.w3.org/1999/xhtml"><span class="edgeLabel"></span></div></foreignObject></g></g><g class="edgeLabel"><g transform="translate(0, 0)" class="label"><foreignObject height="0" width="0"><div style="display: inline-block; white-space: nowrap;" xmlns="http://www.w3.org/1999/xhtml"><span class="edgeLabel"></span></div></foreignObject></g></g><g class="edgeLabel"><g transform="translate(0, 0)" class="label"><foreignObject height="0" width="0"><div style="display: inline-block; white-space: nowrap;" xmlns="http://www.w3.org/1999/xhtml"><span class="edgeLabel"></span></div></foreignObject></g></g><g class="edgeLabel"><g transform="translate(0, 0)" class="label"><foreignObject height="0" width="0"><div style="display: inline-block; white-space: nowrap;" xmlns="http://www.w3.org/1999/xhtml"><span class="edgeLabel"></span></div></foreignObject></g></g><g class="edgeLabel"><g transform="translate(0, 0)" class="label"><foreignObject height="0" width="0"><div style="display: inline-block; white-space: nowrap;" xmlns="http://www.w3.org/1999/xhtml"><span class="edgeLabel"></span></div></foreignObject></g></g><g class="edgeLabel"><g transform="translate(0, 0)" class="label"><foreignObject height="0" width="0"><div style="display: inline-block; white-space: nowrap;" xmlns="http://www.w3.org/1999/xhtml"><span class="edgeLabel"></span></div></foreignObject></g></g><g class="edgeLabel"><g transform="translate(0, 0)" class="label"><foreignObject height="0" width="0"><div style="display: inline-block; white-space: nowrap;" xmlns="http://www.w3.org/1999/xhtml"><span class="edgeLabel"></span></div></foreignObject></g></g><g class="edgeLabel"><g transform="translate(0, 0)" class="label"><foreignObject height="0" width="0"><div style="display: inline-block; white-space: nowrap;" xmlns="http://www.w3.org/1999/xhtml"><span class="edgeLabel"></span></div></foreignObject></g></g><g class="edgeLabel"><g transform="translate(0, 0)" class="label"><foreignObject height="0" width="0"><div style="display: inline-block; white-space: nowrap;" xmlns="http://www.w3.org/1999/xhtml"><span class="edgeLabel"></span></div></foreignObject></g></g></g><g class="nodes"><g transform="translate(732.328125, 464)" data-id="csv" data-node="true" id="flowchart-csv-10" class="node default default flowchart-label"><rect height="34" width="188.96875" y="-17" x="-94.484375" ry="0" rx="0" style="" class="basic label-container"/><g transform="translate(-86.984375, -9.5)" style="" class="label"><rect/><foreignObject height="19" width="173.96875"><div style="display: inline-block; white-space: nowrap;" xmlns="http://www.w3.org/1999/xhtml"><span class="nodeLabel">topic tables and metrics</span></div></foreignObject></g></g><g transform="translate(732.328125, 548)" data-id="htmlviz" data-node="true" id="flowchart-htmlviz-11" class="node default default flowchart-label"><rect height="34" width="198.0625" y="-17" x="-99.03125" ry="0" rx="0" style="" class="basic label-container"/><g transform="translate(-91.53125, -9.5)" style="" class="label"><rect/><foreignObject height="19" width="183.0625"><div style="display: inline-block; white-space: nowrap;" xmlns="http://www.w3.org/1999/xhtml"><span class="nodeLabel">pyLDAvis and Plotly HTML</span></div></foreignObject></g></g><g transform="translate(458.6328125, 52)" data-id="ldaModel" data-node="true" id="flowchart-ldaModel-7" class="node default default flowchart-label"><rect height="34" width="149.328125" y="-17" x="-74.6640625" ry="0" rx="0" style="" class="basic label-container"/><g transform="translate(-67.1640625, -9.5)" style="" class="label"><rect/><foreignObject height="19" width="134.328125"><div style="display: inline-block; white-space: nowrap;" xmlns="http://www.w3.org/1999/xhtml"><span class="nodeLabel">LDA and dictionary</span></div></foreignObject></g></g><g transform="translate(458.6328125, 136)" data-id="bertModel" data-node="true" id="flowchart-bertModel-8" class="node default default flowchart-label"><rect height="34" width="78.5625" y="-17" x="-39.28125" ry="0" rx="0" style="" class="basic label-container"/><g transform="translate(-31.78125, -9.5)" style="" class="label"><rect/><foreignObject height="19" width="63.5625"><div style="display: inline-block; white-space: nowrap;" xmlns="http://www.w3.org/1999/xhtml"><span class="nodeLabel">BERTopic</span></div></foreignObject></g></g><g transform="translate(458.6328125, 220)" data-id="robert" data-node="true" id="flowchart-robert-9" class="node default default flowchart-label"><rect height="34" width="130.1875" y="-17" x="-65.09375" ry="0" rx="0" style="" class="basic label-container"/><g transform="translate(-57.59375, -9.5)" style="" class="label"><rect/><foreignObject height="19" width="115.1875"><div style="display: inline-block; white-space: nowrap;" xmlns="http://www.w3.org/1999/xhtml"><span class="nodeLabel">RoBERT encoder</span></div></foreignObject></g></g><g transform="translate(250.5703125, 432)" data-id="problem" data-node="true" id="flowchart-problem-1" class="node default default flowchart-label"><rect height="34" width="86.828125" y="-17" x="-43.4140625" ry="0" rx="0" style="" class="basic label-container"/><g transform="translate(-35.9140625, -9.5)" style="" class="label"><rect/><foreignObject height="19" width="71.828125"><div style="display: inline-block; white-space: nowrap;" xmlns="http://www.w3.org/1999/xhtml"><span class="nodeLabel">1 Problem</span></div></foreignObject></g></g><g transform="translate(250.5703125, 516)" data-id="solution" data-node="true" id="flowchart-solution-2" class="node default default flowchart-label"><rect height="34" width="86.1875" y="-17" x="-43.09375" ry="0" rx="0" style="" class="basic label-container"/><g transform="translate(-35.59375, -9.5)" style="" class="label"><rect/><foreignObject height="19" width="71.1875"><div style="display: inline-block; white-space: nowrap;" xmlns="http://www.w3.org/1999/xhtml"><span class="nodeLabel">2 Solution</span></div></foreignObject></g></g><g transform="translate(458.6328125, 344)" data-id="implementation" data-node="true" id="flowchart-implementation-3" class="node default default flowchart-label"><rect height="34" width="142.046875" y="-17" x="-71.0234375" ry="0" rx="0" style="" class="basic label-container"/><g transform="translate(-63.5234375, -9.5)" style="" class="label"><rect/><foreignObject height="19" width="127.046875"><div style="display: inline-block; white-space: nowrap;" xmlns="http://www.w3.org/1999/xhtml"><span class="nodeLabel">3 Implementation</span></div></foreignObject></g></g><g transform="translate(250.5703125, 600)" data-id="experiments" data-node="true" id="flowchart-experiments-4" class="node default default flowchart-label"><rect height="34" width="116.796875" y="-17" x="-58.3984375" ry="0" rx="0" style="" class="basic label-container"/><g transform="translate(-50.8984375, -9.5)" style="" class="label"><rect/><foreignObject height="19" width="101.796875"><div style="display: inline-block; white-space: nowrap;" xmlns="http://www.w3.org/1999/xhtml"><span class="nodeLabel">4 Experiments</span></div></foreignObject></g></g><g transform="translate(250.5703125, 348)" data-id="demo" data-node="true" id="flowchart-demo-5" class="node default default flowchart-label"><rect height="34" width="101.765625" y="-17" x="-50.8828125" ry="0" rx="0" style="" class="basic label-container"/><g transform="translate(-43.3828125, -9.5)" style="" class="label"><rect/><foreignObject height="19" width="86.765625"><div style="display: inline-block; white-space: nowrap;" xmlns="http://www.w3.org/1999/xhtml"><span class="nodeLabel">5 Live demo</span></div></foreignObject></g></g><g transform="translate(458.6328125, 516)" data-id="loaders" data-node="true" id="flowchart-loaders-6" class="node default default flowchart-label"><rect height="34" width="125.984375" y="-17" x="-62.9921875" ry="0" rx="0" style="" class="basic label-container"/><g transform="translate(-55.4921875, -9.5)" style="" class="label"><rect/><foreignObject height="19" width="110.984375"><div style="display: inline-block; white-space: nowrap;" xmlns="http://www.w3.org/1999/xhtml"><span class="nodeLabel">artifact loaders</span></div></foreignObject></g></g><g transform="translate(58.5859375, 432)" data-id="user" data-node="true" id="flowchart-user-0" class="node default user flowchart-label"><rect height="34" width="117.171875" y="-17" x="-58.5859375" ry="17" rx="17" style=""/><g transform="translate(-46.8359375, -9.5)" style="" class="label"><rect/><foreignObject height="19" width="93.671875"><div style="display: inline-block; white-space: nowrap;" xmlns="http://www.w3.org/1999/xhtml"><span class="nodeLabel">User browser</span></div></foreignObject></g></g></g></g></g></svg>